HIERARCHY
ROOT Model_Hips
{
	OFFSET 0.000000 96.915077 0.000000
	CHANNELS 6 Xposition Yposition Zposition Xrotation Yrotation Zrotation
	JOINT Model_Spine
	{
		OFFSET 0.000000 11.137703 -1.289900
		CHANNELS 3 Xrotation Yrotation Zrotation
		JOINT Model_Spine1
		{
			OFFSET 0.000000 12.993942 -1.504922
			CHANNELS 3 Xrotation Yrotation Zrotation
			JOINT Model_Spine2
			{
				OFFSET 0.000000 14.850220 -1.719911
				CHANNELS 3 Xrotation Yrotation Zrotation
				JOINT Model_Neck
				{
					OFFSET 0.000000 16.706543 -1.934903
					CHANNELS 3 Xrotation Yrotation Zrotation
					JOINT Model_Head
					{
						OFFSET 0.000000 10.471298 2.002100
						CHANNELS 3 Xrotation Yrotation Zrotation
						JOINT Model_HeadTop_End
						{
							OFFSET 0.000000 20.842606 3.985100
							CHANNELS 3 Xrotation Yrotation Zrotation
							End Site
							{
								OFFSET 0.000000 21.220154 0.000000
							}
						}
					}
				}
				JOINT Model_LeftShoulder
				{
					OFFSET 7.008500 14.768600 -1.919946
					CHANNELS 3 Xrotation Yrotation Zrotation
					JOINT Model_LeftArm
					{
						OFFSET 14.126271 -3.718048 0.029937
						CHANNELS 3 Xrotation Yrotation Zrotation
						JOINT Model_LeftForeArm
						{
							OFFSET 28.282801 0.000000 0.000000
							CHANNELS 3 Xrotation Yrotation Zrotation
							JOINT Model_LeftHand
							{
								OFFSET 26.204689 0.000000 0.000000
								CHANNELS 3 Xrotation Yrotation Zrotation
								End Site
								{
									OFFSET 26.204704 0.000000 0.000000
								}
							}
						}
					}
				}
				JOINT Model_RightShoulder
				{
					OFFSET -7.008500 14.768555 -1.949840
					CHANNELS 3 Xrotation Yrotation Zrotation
					JOINT Model_RightArm
					{
						OFFSET -14.126281 -3.718018 -0.029932
						CHANNELS 3 Xrotation Yrotation Zrotation
						JOINT Model_RightForeArm
						{
							OFFSET -28.283798 0.000000 -0.000001
							CHANNELS 3 Xrotation Yrotation Zrotation
							JOINT Model_RightHand
							{
								OFFSET -26.204193 0.000000 -0.000001
								CHANNELS 3 Xrotation Yrotation Zrotation
								End Site
								{
									OFFSET -26.204208 0.000000 -0.000001
								}
							}
						}
					}
				}
			}
		}
	}
	JOINT Model_LeftUpLeg
	{
		OFFSET 8.327700 -6.193199 -0.402800
		CHANNELS 3 Xrotation Yrotation Zrotation
		JOINT Model_LeftLeg
		{
			OFFSET 0.735802 -42.108742 -0.610721
			CHANNELS 3 Xrotation Yrotation Zrotation
			JOINT Model_LeftFoot
			{
				OFFSET -0.735806 -36.833748 -0.172876
				CHANNELS 3 Xrotation Yrotation Zrotation
				JOINT Model_LeftToeBase
				{
					OFFSET -0.565857 -11.977769 16.297714
					CHANNELS 3 Xrotation Yrotation Zrotation
					JOINT Model_LeftToe_End
					{
						OFFSET -0.111712 -0.312793 7.857784
						CHANNELS 3 Xrotation Yrotation Zrotation
						End Site
						{
							OFFSET -0.111712 -0.312793 7.857784
						}
					}
				}
			}
		}
	}
	JOINT Model_RightUpLeg
	{
		OFFSET -8.327700 -6.193199 -0.516500
		CHANNELS 3 Xrotation Yrotation Zrotation
		JOINT Model_RightLeg
		{
			OFFSET -0.735785 -42.108738 -0.434061
			CHANNELS 3 Xrotation Yrotation Zrotation
			JOINT Model_RightFoot
			{
				OFFSET 0.735776 -36.833748 -0.021630
				CHANNELS 3 Xrotation Yrotation Zrotation
				JOINT Model_RightToeBase
				{
					OFFSET 0.565817 -11.977745 15.903093
					CHANNELS 3 Xrotation Yrotation Zrotation
					JOINT Model_RightToe_End
					{
						OFFSET 0.111702 -0.312791 7.811342
						CHANNELS 3 Xrotation Yrotation Zrotation
						End Site
						{
							OFFSET 0.111702 -0.312791 7.811342
						}
					}
				}
			}
		}
	}
}
MOTION
Frames: 6
Frame Time: 0.033333
-0.184628 95.910164 0.722266 1.018667 2.684805 -1.539372 0.193011 0.358989 0.266579 0.384980 0.692414 0.496923 0.384980 0.692416 0.496922 -0.000368 -0.152066 -0.402849 -0.000366 -0.152064 -0.402849 -0.000000 0.000001 -0.000000 0.546338 -14.779643 -16.719021 -6.085803 6.471311 -50.651382 18.149223 -31.939037 -5.078711 -0.000002 -0.000002 0.000002 1.417833 7.418190 17.752879 0.623263 -19.220125 55.031049 11.687451 24.821879 10.776473 -0.000002 -0.000001 0.000000 -25.015506 5.990550 6.634609 65.159916 -1.017117 0.780103 -3.435784 0.473001 -1.303519 -11.409963 -1.753246 -0.604565 -0.000002 -0.000000 0.000000 -9.951031 -8.689134 2.866451 20.940752 7.913191 -0.007781 -11.354271 0.621426 -4.782615 -4.894228 -0.667435 0.583832 0.000000 -0.000000 0.000000 
-0.301386 96.435196 5.762656 1.020235 1.370594 -1.503742 0.213262 0.662976 0.056884 0.424971 1.339542 0.149554 0.424971 1.339543 0.149554 0.180169 -0.205549 -0.155418 0.180167 -0.205550 -0.155418 0.000000 0.000001 -0.000000 0.856530 -13.559914 -15.861241 -3.241602 10.243480 -53.403897 17.218012 -30.409641 -4.518589 0.000001 0.000001 -0.000000 1.329093 8.177426 16.988709 -2.254463 -21.648358 54.355363 8.183872 34.562991 13.014558 0.000000 -0.000000 0.000000 -28.463109 5.874560 6.096100 58.154273 1.077077 -0.028698 -6.198189 0.481819 -0.841694 -4.507820 -0.338503 -0.508284 0.000001 0.000000 -0.000000 -5.658061 -9.311178 3.119294 19.262937 8.862173 0.114420 -11.914303 0.804658 -5.267427 -5.177654 -0.680277 0.440045 0.000000 0.000000 0.000000 
-0.379381 96.393799 10.735427 0.894955 0.269634 -1.720498 0.324423 0.919059 -0.044307 0.648131 1.900069 -0.043696 0.648131 1.900070 -0.043697 0.198883 -0.284459 0.172124 0.198882 -0.284460 0.172125 0.000000 -0.000001 -0.000000 0.947328 -13.021928 -15.993436 0.857701 13.070183 -54.488439 18.028313 -30.983558 -3.936399 -0.000002 -0.000003 0.000001 1.346589 8.602114 15.802356 -6.331131 -19.146472 53.324841 6.146212 39.136089 14.659744 -0.000000 -0.000002 0.000001 -30.478882 5.189879 5.525363 48.623946 3.567582 -0.413953 -8.337472 0.404377 -0.134712 -5.570354 3.738005 -3.585415 0.000000 -0.000000 0.000000 -2.038068 -9.950663 3.155616 19.211710 9.922493 0.531099 -13.439943 1.042175 -5.746333 -5.313602 -0.786198 0.458256 0.000000 -0.000000 0.000000 
-0.392386 95.898537 15.928387 0.691755 -0.504172 -1.926160 0.378821 1.106499 -0.063484 0.759301 2.335100 -0.138334 0.759301 2.335102 -0.138334 0.514394 -0.334917 0.398443 0.514385 -0.334916 0.398444 -0.000000 0.000000 -0.000000 1.147219 -12.106827 -15.628637 4.294977 14.869059 -56.488260 19.004206 -29.753728 -3.748062 -0.000000 0.000001 -0.000001 1.352945 9.056005 14.790519 -10.363253 -15.232172 52.256213 4.926754 41.212696 14.620686 0.000002 -0.000003 0.000000 -31.873149 4.597804 5.068662 38.265124 4.909743 -0.483569 -8.812299 0.273351 1.116266 -4.983614 1.302147 -1.733415 0.000001 0.000000 -0.000000 1.569968 -10.817924 2.762429 19.763526 11.303711 1.263189 -15.642224 1.359557 -6.370723 -5.938384 -0.983609 0.525074 0.000000 0.000000 0.000000 
-0.398468 95.081039 20.983952 0.584767 -1.070795 -1.978094 0.454361 1.257009 -0.095849 0.915530 2.713269 -0.303174 0.915530 2.713267 -0.303173 0.687512 -0.397379 0.673165 0.687511 -0.397379 0.673165 0.000000 0.000000 -0.000000 1.262641 -11.742515 -14.959619 7.064685 16.606640 -59.080993 19.808071 -27.718287 -3.191676 -0.000000 0.000001 0.000000 1.315384 9.540587 14.299658 -13.719673 -9.869285 51.433558 5.007575 41.936293 11.898072 0.000002 0.000001 0.000000 -33.316666 4.407200 4.646632 28.162769 4.418022 -0.110024 -6.450833 0.246225 1.983097 -5.096389 0.600776 -1.242624 0.000000 0.000000 0.000000 4.600012 -11.363207 2.090379 21.073507 12.373961 1.956705 -17.949266 1.678670 -6.824286 -7.516009 -1.345056 0.884413 0.000000 0.000000 0.000000 
-0.343976 94.119713 26.023657 0.658337 -1.678789 -1.930522 0.468861 1.415620 -0.164219 0.951702 3.141337 -0.534270 0.951702 3.141337 -0.534269 0.852173 -0.488160 1.015882 0.852174 -0.488160 1.015883 0.000000 0.000000 0.000000 1.244477 -11.988689 -14.624400 9.647130 18.679796 -61.399801 20.390515 -25.998997 -2.337375 0.000001 0.000000 0.000000 1.327425 9.913881 13.516367 -16.402278 -4.368626 51.753494 5.447059 40.632754 8.063093 0.000001 0.000002 -0.000001 -35.336083 3.828667 4.085069 21.050377 3.463960 0.838115 -4.962091 0.359845 1.023906 -6.088025 3.061160 -3.174920 -0.000001 0.000001 0.000000 6.526750 -11.944023 1.067256 24.014742 13.371954 2.486952 -19.581404 1.941904 -7.117283 -10.916165 -1.577741 0.686376 0.000000 0.000000 0.000000 
